<svg xmlns="http://www.w3.org/2000/svg" viewBox="-30 -20 104 90">
  <defs id="SvgjsDefs1470">
    <linearGradient id="SvgjsLinearGradient1475">
      <stop id="SvgjsStop1476" stop-color="#6d7cff" offset="0"></stop>
      <stop id="SvgjsStop1477" stop-color="#ff51ff" offset="1"></stop>
    </linearGradient>
  </defs>
  <g id="SvgjsG1471"
    transform="matrix(0.13795463974990668,0,0,0.13795463974990668,-0.9068997080757225,13.46836116977687)"
    fill="url(#SvgjsLinearGradient1475)">
    <path xmlns="http://www.w3.org/2000/svg"
      d="M36.2,127.7l128.4,0.4c3.5,0,6.7-1.9,8.5-4.9l17.7-30.4c1.5-2.6-0.4-5.9-3.4-5.9L58.2,86.5c-3.5,0-6.7,1.9-8.5,4.9  L7.9,163.3c-1.7,3-1.8,6.8-0.1,9.8l64.2,112c1.5,2.6,5.3,2.6,6.8,0l17.7-30.4c1.7-3,1.8-6.8,0.1-9.8L32.8,133.6  C31.3,131,33.2,127.7,36.2,127.7z">
    </path>
    <path xmlns="http://www.w3.org/2000/svg"
      d="M224.9,73.2l-64.6,110.9c-1.7,3-1.8,6.8-0.1,9.8l17.5,30.5c1.5,2.6,5.3,2.6,6.8,0l65.1-111.7c1.7-3,1.8-6.8,0.1-9.8  l-41.3-72.1c-1.7-3-5-5-8.5-4.9L70.7,25.6c-3,0-4.9,3.3-3.4,5.9L84.7,62c1.7,3,5,5,8.5,4.9l128.4,0.4  C224.6,67.4,226.4,70.7,224.9,73.2z">
    </path>
    <g xmlns="http://www.w3.org/2000/svg">
      <path
        d="M292.6,148.2l-35.2-0.1c-3.5,0-6.7,1.9-8.5,4.9l-64.6,110.9c-1.5,2.6-5.3,2.6-6.8,0l-63.7-111.2c-1.7-3-5-5-8.5-4.9   l-35.2-0.1c-3,0-4.9,3.3-3.4,5.9l64.2,112c1.7,3,5,5,8.5,4.9l83.2,0.2c3.5,0,6.7-1.9,8.5-4.9L296,154.1   C297.5,151.5,295.6,148.3,292.6,148.2z">
      </path>
    </g>
  </g>
</svg>